<mxfile host="65bd71144e">
    <diagram id="v-w_UyHxcoHzM-9ri4jf" name="Page-1">
        <mxGraphModel dx="1240" dy="1012" grid="1" gridSize="10" guides="1" tooltips="1" connect="1" arrows="1" fold="1" page="1" pageScale="1" pageWidth="1169" pageHeight="1654" math="0" shadow="0">
            <root>
                <mxCell id="0"/>
                <mxCell id="1" parent="0"/>
                <mxCell id="12" value="&lt;p style=&quot;margin: 4px 0px 0px&quot;&gt;&lt;font style=&quot;font-size: 12px&quot;&gt;&amp;lt;&amp;lt;requirement&amp;gt;&amp;gt;&lt;br&gt;&lt;span&gt;Réalisation&lt;/span&gt;&lt;br&gt;&lt;/font&gt;&lt;/p&gt;&lt;hr&gt;&lt;p style=&quot;text-align: left ; margin: 0px 0px 0px 8px&quot;&gt;&lt;font style=&quot;font-size: 12px&quot;&gt;text =&amp;nbsp;&lt;span&gt;On doit voir ce shémas sur une interface IHM sur un PC.&lt;/span&gt;&lt;/font&gt;&lt;/p&gt;&lt;p style=&quot;text-align: left ; margin: 0px 0px 0px 8px&quot;&gt;&lt;font style=&quot;font-size: 12px&quot;&gt;&lt;span&gt;&lt;br&gt;&lt;/span&gt;&lt;/font&gt;&lt;/p&gt;&lt;p style=&quot;text-align: left ; margin: 0px 0px 0px 8px&quot;&gt;&lt;font style=&quot;font-size: 12px&quot;&gt;&lt;span&gt;Id=&quot;1.1&quot;&lt;/span&gt;&lt;/font&gt;&lt;/p&gt;" style="shape=rect;html=1;overflow=fill;whiteSpace=wrap;fontSize=10;align=center;" parent="1" vertex="1">
                    <mxGeometry x="148.75" y="310" width="172.5" height="160" as="geometry"/>
                </mxCell>
                <mxCell id="19" value="&lt;p style=&quot;margin: 0px ; margin-top: 4px ; text-align: center&quot;&gt;&lt;font style=&quot;font-size: 12px&quot;&gt;&amp;lt;&amp;lt;requirement&amp;gt;&amp;gt;&lt;br&gt;Supervision statique de l'installation&lt;br&gt;&lt;/font&gt;&lt;/p&gt;&lt;hr&gt;&lt;p style=&quot;margin: 0px ; margin-left: 8px ; text-align: left&quot;&gt;&lt;font style=&quot;font-size: 12px&quot;&gt;text = On doit pouvoir visualiser le shémas du banc avec les différents type d'alertes et de données au niveau du vérin.&lt;/font&gt;&lt;/p&gt;&lt;p style=&quot;margin: 0px ; margin-left: 8px ; text-align: left&quot;&gt;&lt;font style=&quot;font-size: 12px&quot;&gt;&lt;br&gt;&lt;/font&gt;&lt;/p&gt;&lt;p style=&quot;margin: 0px ; margin-left: 8px ; text-align: left&quot;&gt;&lt;font style=&quot;font-size: 12px&quot;&gt;Id=&quot;1&quot;&lt;/font&gt;&lt;/p&gt;&lt;div style=&quot;padding: 0px ; margin: 0px&quot;&gt;&lt;br style=&quot;padding: 0px ; margin: 0px ; text-align: left&quot;&gt;&lt;/div&gt;" style="shape=rect;html=1;overflow=fill;whiteSpace=wrap;fontSize=10;" parent="1" vertex="1">
                    <mxGeometry x="120" y="80" width="230" height="140" as="geometry"/>
                </mxCell>
                <mxCell id="23" value="&lt;p style=&quot;margin: 0px ; margin-top: 4px ; text-align: center&quot;&gt;&amp;lt;&amp;lt;requirement&amp;gt;&amp;gt;&lt;br&gt;&lt;span&gt;Modification&lt;/span&gt;&lt;br&gt;&lt;/p&gt;&lt;hr&gt;&lt;p style=&quot;text-align: left ; margin: 0px 0px 0px 8px&quot;&gt;text =&amp;nbsp;&lt;span style=&quot;text-align: center&quot;&gt;&lt;font style=&quot;font-size: 10px&quot;&gt;Proposer par défaut&lt;br&gt;les choix du&lt;br&gt;contrôleur. Permettre&lt;br&gt;une modification de&lt;br&gt;ceux-ci.&lt;/font&gt;&lt;/span&gt;&lt;/p&gt;&lt;p style=&quot;text-align: left ; margin: 0px 0px 0px 8px&quot;&gt;&lt;span style=&quot;text-align: center&quot;&gt;&lt;font style=&quot;font-size: 10px&quot;&gt;&lt;br&gt;&lt;/font&gt;&lt;/span&gt;&lt;/p&gt;&lt;p style=&quot;text-align: left ; margin: 0px 0px 0px 8px&quot;&gt;&lt;span style=&quot;text-align: center&quot;&gt;&lt;font style=&quot;font-size: 10px&quot;&gt;Id=&quot;2.1&quot;&lt;/font&gt;&lt;/span&gt;&lt;/p&gt;&lt;br&gt;&#9;&#9;&lt;br&gt;&#9;&lt;br&gt;&#9;&lt;br&gt;&#9;&#9;" style="shape=rect;html=1;overflow=fill;whiteSpace=wrap;fontSize=10;" parent="1" vertex="1">
                    <mxGeometry x="617" y="350" width="135" height="140" as="geometry"/>
                </mxCell>
                <mxCell id="28" value="&lt;p style=&quot;margin: 0px ; margin-top: 4px ; text-align: center&quot;&gt;&amp;lt;&amp;lt;requirement&amp;gt;&amp;gt;&lt;br&gt;&lt;span&gt;Annulation&lt;/span&gt;&lt;br&gt;&lt;/p&gt;&lt;hr&gt;&lt;p style=&quot;text-align: left ; margin: 0px 0px 0px 8px&quot;&gt;text = On doit pouvoir annuler l'essai en cours et de ne pas sauvegarder celui-ci.&lt;span style=&quot;text-align: center&quot;&gt;&lt;font style=&quot;font-size: 10px&quot;&gt;&lt;br&gt;&lt;/font&gt;&lt;/span&gt;&lt;/p&gt;&lt;p style=&quot;text-align: left ; margin: 0px 0px 0px 8px&quot;&gt;&lt;br&gt;&lt;/p&gt;&lt;p style=&quot;text-align: left ; margin: 0px 0px 0px 8px&quot;&gt;Id=&quot;3.1&quot;&lt;/p&gt;&lt;br&gt;&#9;&#9;&lt;br&gt;&#9;&lt;br&gt;&#9;&lt;br&gt;&#9;&#9;" style="shape=rect;html=1;overflow=fill;whiteSpace=wrap;fontSize=10;" parent="1" vertex="1">
                    <mxGeometry x="915" y="340" width="135" height="140" as="geometry"/>
                </mxCell>
                <mxCell id="30" value="&lt;p style=&quot;margin: 0px ; margin-top: 4px ; text-align: center&quot;&gt;&amp;lt;&amp;lt;requirement&amp;gt;&amp;gt;&lt;br&gt;&lt;span style=&quot;font-size: 12px&quot;&gt;Tracé de courbes&lt;/span&gt;&lt;/p&gt;&lt;hr&gt;&lt;div style=&quot;padding: 0px ; margin: 0px&quot;&gt;&lt;div&gt;&lt;div style=&quot;text-align: left&quot;&gt;text = On doit pouvoir v&lt;font&gt;&lt;font style=&quot;font-size: 10px&quot;&gt;&lt;span&gt;isualiser sur une page écran les&lt;br&gt;acquisitions des capteurs.&amp;nbsp;On utilisera un&lt;br&gt;&lt;/span&gt;&lt;span&gt;mode d’affichage de la courbe type&lt;br&gt;&lt;/span&gt;&lt;span&gt;oscilloscope afin de toujours visualiser&lt;br&gt;&lt;/span&gt;&lt;span&gt;un maximum de points à l’écran&lt;/span&gt;&lt;span style=&quot;text-align: center&quot;&gt;.&lt;/span&gt;&lt;/font&gt;&lt;/font&gt;&lt;/div&gt;&lt;div style=&quot;text-align: left&quot;&gt;&lt;font&gt;&lt;font style=&quot;font-size: 10px&quot;&gt;&lt;span style=&quot;text-align: center&quot;&gt;&lt;br&gt;&lt;/span&gt;&lt;/font&gt;&lt;/font&gt;&lt;/div&gt;&lt;div style=&quot;text-align: left&quot;&gt;&lt;font&gt;&lt;font style=&quot;font-size: 10px&quot;&gt;&lt;span style=&quot;text-align: center&quot;&gt;Id=&quot;4&quot;&lt;/span&gt;&lt;/font&gt;&lt;/font&gt;&lt;/div&gt;&lt;br&gt;&#9;&#9;&lt;br&gt;&#9;&lt;br&gt;&#9;&lt;br&gt;&#9;&#9;&lt;/div&gt;&lt;div style=&quot;text-align: left&quot;&gt;&lt;br&gt;&lt;/div&gt;&lt;/div&gt;" style="shape=rect;html=1;overflow=fill;whiteSpace=wrap;fontSize=10;" parent="1" vertex="1">
                    <mxGeometry x="320" y="500" width="250" height="140" as="geometry"/>
                </mxCell>
                <mxCell id="31" value="&lt;p style=&quot;margin: 4px 0px 0px&quot;&gt;&lt;font style=&quot;font-size: 12px&quot;&gt;&amp;lt;&amp;lt;requirement&amp;gt;&amp;gt;&lt;br&gt;&lt;span&gt;Unités de graduation&lt;/span&gt;&lt;br&gt;&lt;/font&gt;&lt;/p&gt;&lt;hr&gt;&lt;p style=&quot;text-align: left ; margin: 0px 0px 0px 8px&quot;&gt;&lt;font style=&quot;font-size: 12px&quot;&gt;text = La l&lt;span&gt;égende est&amp;nbsp; obligatoire, les axes seront gradués en fonction de l'échelle et des unités S.I.&lt;/span&gt;&lt;/font&gt;&lt;/p&gt;&lt;p style=&quot;text-align: left ; margin: 0px 0px 0px 8px&quot;&gt;&lt;font style=&quot;font-size: 12px&quot;&gt;&lt;span&gt;&lt;br&gt;&lt;/span&gt;&lt;/font&gt;&lt;/p&gt;&lt;p style=&quot;text-align: left ; margin: 0px 0px 0px 8px&quot;&gt;&lt;font style=&quot;font-size: 12px&quot;&gt;&lt;span&gt;Id=&quot;4.2&quot;&lt;/span&gt;&lt;/font&gt;&lt;/p&gt;" style="shape=rect;html=1;overflow=fill;whiteSpace=wrap;fontSize=10;align=center;" parent="1" vertex="1">
                    <mxGeometry x="363.75" y="710" width="162.5" height="170" as="geometry"/>
                </mxCell>
                <mxCell id="33" value="&amp;lt;&amp;lt;include&amp;gt;&amp;gt;" style="html=1;verticalAlign=bottom;labelBackgroundColor=none;endArrow=open;endFill=0;dashed=1;exitX=0.5;exitY=0;exitDx=0;exitDy=0;entryX=0.5;entryY=1;entryDx=0;entryDy=0;" parent="1" source="31" target="30" edge="1">
                    <mxGeometry width="160" relative="1" as="geometry">
                        <mxPoint x="380" y="650" as="sourcePoint"/>
                        <mxPoint x="660" y="440" as="targetPoint"/>
                    </mxGeometry>
                </mxCell>
                <mxCell id="35" value="&amp;lt;&amp;lt;include&amp;gt;&amp;gt;" style="html=1;verticalAlign=bottom;labelBackgroundColor=none;endArrow=open;endFill=0;dashed=1;exitX=0.5;exitY=0;exitDx=0;exitDy=0;entryX=0.5;entryY=1;entryDx=0;entryDy=0;" parent="1" source="12" edge="1">
                    <mxGeometry width="160" relative="1" as="geometry">
                        <mxPoint x="234.5" y="290" as="sourcePoint"/>
                        <mxPoint x="234.5" y="220" as="targetPoint"/>
                    </mxGeometry>
                </mxCell>
                <mxCell id="36" value="&amp;lt;&amp;lt;include&amp;gt;&amp;gt;" style="html=1;verticalAlign=bottom;labelBackgroundColor=none;endArrow=open;endFill=0;dashed=1;exitX=0.5;exitY=0;exitDx=0;exitDy=0;entryX=0.5;entryY=1;entryDx=0;entryDy=0;" parent="1" edge="1" target="43" source="23">
                    <mxGeometry width="160" relative="1" as="geometry">
                        <mxPoint x="550.5" y="330" as="sourcePoint"/>
                        <mxPoint x="550" y="240" as="targetPoint"/>
                    </mxGeometry>
                </mxCell>
                <mxCell id="37" value="&amp;lt;&amp;lt;include&amp;gt;&amp;gt;" style="html=1;verticalAlign=bottom;labelBackgroundColor=none;endArrow=open;endFill=0;dashed=1;exitX=0.5;exitY=0;exitDx=0;exitDy=0;entryX=0.5;entryY=1;entryDx=0;entryDy=0;" parent="1" edge="1" target="40" source="28">
                    <mxGeometry width="160" relative="1" as="geometry">
                        <mxPoint x="845" y="300" as="sourcePoint"/>
                        <mxPoint x="845" y="210" as="targetPoint"/>
                    </mxGeometry>
                </mxCell>
                <mxCell id="40" value="&lt;p style=&quot;margin: 0px ; margin-top: 4px ; text-align: center&quot;&gt;&amp;lt;&amp;lt;requirement&amp;gt;&amp;gt;&lt;br&gt;&lt;b&gt;Départ des acquisitions&lt;/b&gt;&lt;/p&gt;&lt;hr&gt;&lt;p&gt;&lt;/p&gt;&lt;p style=&quot;margin: 0px ; margin-left: 8px ; text-align: left&quot;&gt;text=&quot;&lt;span style=&quot;font-family: &amp;#34;helvetica&amp;#34;&quot;&gt;Dans ce mode le logiciel attend un top&lt;/span&gt;&lt;/p&gt;&lt;div style=&quot;text-align: left&quot;&gt;&amp;nbsp; départ des acquisitions sur une entrée&lt;/div&gt;&lt;div style=&quot;text-align: left&quot;&gt;&amp;nbsp; TOR de la carte d’E/S provenant de&lt;/div&gt;&lt;div style=&quot;text-align: left&quot;&gt;&amp;nbsp; l’automate de pilotage du banc test.&lt;span&gt;&quot;&lt;/span&gt;&lt;/div&gt;&lt;div style=&quot;text-align: left&quot;&gt;&lt;span&gt;&lt;br&gt;&lt;/span&gt;&lt;/div&gt;&lt;p style=&quot;margin: 0px ; margin-left: 8px ; text-align: left&quot;&gt;Id=&quot;3&quot;&lt;/p&gt;" style="shape=rect;overflow=fill;html=1;whiteSpace=wrap;align=center;fontSize=12;" vertex="1" parent="1">
                    <mxGeometry x="850" y="110" width="265" height="140" as="geometry"/>
                </mxCell>
                <mxCell id="43" value="&lt;p style=&quot;margin: 0px ; margin-top: 4px ; text-align: center&quot;&gt;&amp;lt;&amp;lt;requirement&amp;gt;&amp;gt;&lt;br&gt;&lt;b&gt;Paramètrage des acquisitions&lt;/b&gt;&lt;/p&gt;&lt;hr&gt;&lt;p&gt;&lt;/p&gt;&lt;p style=&quot;margin: 0px ; margin-left: 8px ; text-align: left&quot;&gt;text=&quot;On doit pouvoir modifier les paramètre de la carte E/S pour la pression et le débit du vérin&quot;&lt;br&gt;Id=&quot;2&quot;&lt;/p&gt;" style="shape=rect;overflow=fill;html=1;whiteSpace=wrap;align=center;fontSize=12;" vertex="1" parent="1">
                    <mxGeometry x="570" y="100" width="230" height="150" as="geometry"/>
                </mxCell>
                <mxCell id="44" value="&lt;p style=&quot;margin: 0px ; margin-top: 4px ; text-align: center&quot;&gt;&amp;lt;&amp;lt;requirement&amp;gt;&amp;gt;&lt;br&gt;&lt;b&gt;Courbe en direct&lt;/b&gt;&lt;/p&gt;&lt;hr&gt;&lt;p&gt;&lt;/p&gt;&lt;p style=&quot;margin: 0px ; margin-left: 8px ; text-align: left&quot;&gt;text=&quot;La courbe en direct doit être uniquement vu depuis le poste manipulateur (poste banc)&quot;&lt;/p&gt;&lt;p style=&quot;margin: 0px ; margin-left: 8px ; text-align: left&quot;&gt;&lt;br&gt;Id=&quot;4.1&quot;&lt;/p&gt;" style="shape=rect;overflow=fill;html=1;whiteSpace=wrap;align=center;fontSize=12;" vertex="1" parent="1">
                    <mxGeometry x="95" y="710" width="200" height="130" as="geometry"/>
                </mxCell>
                <mxCell id="45" value="&lt;p style=&quot;margin: 0px ; margin-top: 4px ; text-align: center&quot;&gt;&amp;lt;&amp;lt;requirement&amp;gt;&amp;gt;&lt;br&gt;&lt;b&gt;Courbe en différé&lt;/b&gt;&lt;/p&gt;&lt;hr&gt;&lt;p&gt;&lt;/p&gt;&lt;p style=&quot;margin: 0px ; margin-left: 8px ; text-align: left&quot;&gt;text=&quot;La courbe en différé doit être vu par le contrôleur&quot;&lt;br&gt;Id=&quot;4.3&quot;&lt;/p&gt;" style="shape=rect;overflow=fill;html=1;whiteSpace=wrap;align=center;fontSize=12;" vertex="1" parent="1">
                    <mxGeometry x="610" y="710" width="200" height="100" as="geometry"/>
                </mxCell>
                <mxCell id="47" value="" style="endArrow=circlePlus;startArrow=none;endFill=0;startFill=0;endSize=8;html=1;labelBackgroundColor=none;fontSize=12;entryX=0.75;entryY=1;entryDx=0;entryDy=0;exitX=0.5;exitY=0;exitDx=0;exitDy=0;" edge="1" parent="1" source="45" target="30">
                    <mxGeometry width="160" relative="1" as="geometry">
                        <mxPoint x="605" y="620" as="sourcePoint"/>
                        <mxPoint x="765" y="620" as="targetPoint"/>
                        <Array as="points">
                            <mxPoint x="710" y="680"/>
                            <mxPoint x="508" y="680"/>
                        </Array>
                    </mxGeometry>
                </mxCell>
                <mxCell id="48" value="" style="endArrow=circlePlus;startArrow=none;endFill=0;startFill=0;endSize=8;html=1;labelBackgroundColor=none;fontSize=12;entryX=0.25;entryY=1;entryDx=0;entryDy=0;exitX=0.5;exitY=0;exitDx=0;exitDy=0;" edge="1" parent="1" source="44" target="30">
                    <mxGeometry width="160" relative="1" as="geometry">
                        <mxPoint x="670" y="720" as="sourcePoint"/>
                        <mxPoint x="509.5000000000002" y="653.3600000000001" as="targetPoint"/>
                        <Array as="points">
                            <mxPoint x="195" y="680"/>
                            <mxPoint x="383" y="680"/>
                        </Array>
                    </mxGeometry>
                </mxCell>
                <mxCell id="49" value="&lt;p style=&quot;margin: 0px ; margin-top: 4px ; text-align: center&quot;&gt;&amp;lt;&amp;lt;requirement&amp;gt;&amp;gt;&lt;br&gt;&lt;b&gt;Accessibilité&lt;/b&gt;&lt;/p&gt;&lt;hr&gt;&lt;p&gt;&lt;/p&gt;&lt;p style=&quot;margin: 0px ; margin-left: 8px ; text-align: left&quot;&gt;text=&quot;La courbe en différé doit être accessible depuis la page web sur serveur&quot;&lt;/p&gt;&lt;p style=&quot;margin: 0px ; margin-left: 8px ; text-align: left&quot;&gt;&lt;br&gt;Id=&quot;4.3.1&quot;&lt;/p&gt;" style="shape=rect;overflow=fill;html=1;whiteSpace=wrap;align=center;fontSize=12;" vertex="1" parent="1">
                    <mxGeometry x="610" y="900" width="200" height="140" as="geometry"/>
                </mxCell>
                <mxCell id="50" value="&amp;lt;&amp;lt;refine&amp;gt;&amp;gt;" style="edgeStyle=none;html=1;endArrow=open;endSize=12;dashed=1;verticalAlign=bottom;fontSize=12;exitX=0.5;exitY=0;exitDx=0;exitDy=0;entryX=0.5;entryY=1;entryDx=0;entryDy=0;" edge="1" parent="1" source="49" target="45">
                    <mxGeometry width="160" relative="1" as="geometry">
                        <mxPoint x="540" y="560" as="sourcePoint"/>
                        <mxPoint x="700" y="560" as="targetPoint"/>
                    </mxGeometry>
                </mxCell>
            </root>
        </mxGraphModel>
    </diagram>
</mxfile>